<svg xmlns="http://www.w3.org/2000/svg" viewBox="0 0 64 64" role="img" aria-labelledby="title desc">
  <title id="title">Grimorio</title>
  <desc id="desc">Livro arcano dourado com runa central.</desc>
  <defs>
    <linearGradient id="bg" x1="0" y1="0" x2="1" y2="1">
      <stop offset="0%" stop-color="#2a1c0f" />
      <stop offset="100%" stop-color="#120c07" />
    </linearGradient>
    <linearGradient id="gold" x1="0" y1="0" x2="1" y2="1">
      <stop offset="0%" stop-color="#d9ab4d" />
      <stop offset="100%" stop-color="#8b6914" />
    </linearGradient>
  </defs>
  <rect width="64" height="64" rx="12" fill="#0b0906" />
  <path d="M14 13.5h24c4.8 0 8 1.4 11 4.5V50c-3.1-2.2-6.1-3-10.2-3H14z" fill="url(#bg)" stroke="url(#gold)" stroke-width="2.2" />
  <path d="M18 17h18.8c3.8 0 6.2 1 8.2 3v25.3c-2.1-1.4-4.4-2-7.8-2H18z" fill="none" stroke="rgba(240,230,211,0.18)" stroke-width="1" />
  <path d="M24 21.5h8.3l5.6 6.4-5.6 6.4H24l5.5-6.4z" fill="none" stroke="#f0e6d3" stroke-width="2" stroke-linejoin="round" />
  <path d="M24 42.5h16" stroke="#8b6914" stroke-width="2.2" stroke-linecap="round" />
  <path d="M24 47h12" stroke="#8b6914" stroke-width="2.2" stroke-linecap="round" />
  <path d="M14 13.5v33.5" stroke="#e0b96f" stroke-width="2.5" />
</svg>
